<svg id="Icon_icon-directions-car" data-name="Icon / icon-directions-car" xmlns="http://www.w3.org/2000/svg" width="24" height="24" viewBox="0 0 24 24">
  <path id="Shape" d="M0,0H24V24H0Z" fill="none"/>
  <path id="Shape-2" data-name="Shape" d="M17,16H16a1,1,0,0,1-1-1V14H3v1a1,1,0,0,1-1,1H1a1,1,0,0,1-1-1V7L2.08,1.01A1.5,1.5,0,0,1,3.5,0h11a1.5,1.5,0,0,1,1.42,1.01L18,7v8A1,1,0,0,1,17,16ZM14.5,8A1.5,1.5,0,1,0,16,9.5,1.5,1.5,0,0,0,14.5,8ZM3.5,8A1.5,1.5,0,1,0,5,9.5,1.5,1.5,0,0,0,3.5,8Zm0-6.5L2,6H16L14.5,1.5Z" transform="translate(3 5)" fill="#fff"/>
</svg>
