<svg id="Icon_icon-user-group" data-name="Icon / icon-user-group" xmlns="http://www.w3.org/2000/svg" width="24" height="24" viewBox="0 0 24 24">
  <path id="Shape" d="M0,0H24V24H0Z" fill="none"/>
  <path id="Shape-2" data-name="Shape" d="M20,14H9V11.75C9,9.945,12.581,9,14.5,9s5.5.945,5.5,2.75V14ZM7,14H0V11.5C0,9.2,4.557,8,7,8a12.3,12.3,0,0,1,2.37.28A3.954,3.954,0,0,0,7,11.75V14Zm7.5-7a2.5,2.5,0,1,1,2.49-2.5A2.5,2.5,0,0,1,14.5,7ZM7,6A3,3,0,1,1,9.99,3,3,3,0,0,1,7,6Z" transform="translate(2 5)" fill="#165fce"/>
</svg>
